# xmcd CD database file
#
# Track frame offsets:
#	150
#	22197
#	42547
#	64595
#
# Disc length: 1129 seconds
#
# Revision: 2
# Processed by: cddbd v1.5PL3 Copyright (c) Steve Scherf et al.
# Submitted via: CDex 1.50
#
DISCID=33046704
DTITLE=影山ヒロノブ - ベースボール天国
DYEAR=1999
DGENRE=JPop
TTITLE0=ベースボール天国
TTITLE1=歌う珍プレー
TTITLE2=ベースボール天国(Instrumental)
TTITLE3=歌う珍プレー(Instrumental)
EXTD=YEAR: 1999
EXTT0=
EXTT1=
EXTT2=
EXTT3=
PLAYORDER=
